<?xml version="1.0" standalone="no"?>
<!DOCTYPE svg PUBLIC "-//W3C//DTD SVG 20010904//EN"
 "http://www.w3.org/TR/2001/REC-SVG-20010904/DTD/svg10.dtd">
<svg version="1.0" xmlns="http://www.w3.org/2000/svg"
 width="500.000000pt" height="500.000000pt" viewBox="0 0 500.000000 500.000000"
 preserveAspectRatio="xMidYMid meet">

<g transform="translate(0.000000,500.000000) scale(0.100000,-0.100000)"
fill="#000000" stroke="none">
<path d="M2335 4656 c-194 -45 -372 -157 -495 -312 -84 -105 -108 -151 -126
-235 -20 -95 -7 -181 42 -288 33 -71 35 -81 30 -147 -5 -68 -4 -73 30 -127 25
-40 44 -59 68 -67 27 -9 35 -19 45 -53 15 -49 42 -96 89 -155 33 -41 34 -44
28 -102 -4 -34 -2 -76 4 -100 8 -30 8 -45 -2 -62 -7 -13 -11 -31 -10 -40 2
-10 -12 -27 -35 -42 -61 -41 -160 -158 -183 -217 -32 -80 -78 -274 -105 -439
-38 -230 -102 -383 -180 -429 -28 -16 -36 -28 -41 -61 -6 -39 -46 -86 -64 -75
-4 2 -11 37 -14 77 -19 191 -59 465 -72 494 -9 18 -28 38 -44 44 -37 15 -554
21 -588 7 -43 -20 -45 -61 -18 -327 32 -302 32 -290 4 -290 -37 0 -50 -15 -49
-56 0 -22 -7 -53 -16 -71 -14 -25 -15 -37 -5 -57 7 -15 8 -36 3 -54 -5 -17 -5
-36 1 -46 6 -10 8 -29 5 -42 -2 -13 2 -32 9 -41 7 -10 14 -37 14 -60 0 -44 17
-63 58 -63 11 0 23 -7 26 -16 7 -19 32 -209 41 -314 13 -144 22 -159 164 -258
52 -36 112 -82 134 -102 24 -23 62 -44 96 -54 79 -24 191 -79 246 -121 26 -20
59 -41 73 -46 31 -12 516 -4 672 11 52 5 226 14 385 20 278 10 609 40 687 61
49 13 80 56 76 106 -2 30 -10 42 -48 68 -50 35 -57 53 -40 96 l12 29 128 0
c147 0 160 -6 160 -70 0 -21 8 -65 19 -99 10 -33 16 -63 13 -66 -3 -3 -21 -5
-39 -5 -75 0 -95 -40 -41 -81 81 -61 74 -59 230 -48 258 19 267 23 61 29 -105
3 -194 7 -197 10 -2 3 95 5 217 5 220 0 327 9 311 25 -5 5 -26 10 -47 12 -61
5 -43 23 30 29 38 3 64 6 58 7 -5 1 5 11 23 22 45 28 121 105 132 136 14 36
10 154 -6 186 -8 15 -24 34 -36 42 -11 8 -22 27 -24 41 -2 15 -15 42 -29 61
-21 27 -33 34 -62 34 -30 0 -34 3 -27 18 14 29 16 270 5 399 -12 125 -50 303
-75 351 -8 16 -37 40 -64 55 l-49 27 -6 147 c-8 196 -63 493 -137 740 -37 122
-72 172 -177 249 -112 83 -164 114 -191 114 -41 0 -122 43 -129 68 -3 12 -18
31 -34 43 -40 28 -49 49 -55 121 -3 35 -13 90 -24 123 -10 33 -21 100 -23 149
-5 89 -5 90 29 139 46 66 60 120 45 175 -6 23 -11 68 -11 100 0 49 -5 65 -31
100 -17 23 -35 42 -40 42 -5 0 -12 12 -15 28 -13 51 -52 117 -88 145 -19 15
-54 59 -77 97 -77 131 -154 198 -275 241 -77 27 -270 35 -359 15z m277 -31
c104 -22 117 -35 28 -28 -138 10 -239 -39 -398 -193 l-84 -81 -51 14 c-70 18
-178 17 -203 -2 -17 -13 -16 -14 15 -4 67 23 203 -5 266 -54 13 -10 -2 -7 -41
8 -125 50 -191 44 -296 -28 -37 -25 -54 -46 -79 -101 -31 -66 -32 -72 -26
-165 4 -74 3 -90 -5 -71 -19 43 -14 169 9 226 29 73 117 197 182 256 212 190
459 271 683 223z m457 -392 c14 -31 14 -33 -4 -33 -14 0 -45 48 -45 70 0 17
37 -11 49 -37z m-1109 -73 c11 -7 6 -10 -22 -10 -51 0 -89 -16 -115 -48 -22
-26 -23 -26 -23 -5 0 34 54 73 103 73 23 0 49 -5 57 -10z m126 -81 c97 -29
334 -164 334 -190 0 -6 -19 -7 -47 -3 -41 5 -59 1 -123 -28 -80 -37 -106 -59
-96 -83 8 -23 30 -18 106 21 72 38 135 51 195 40 27 -5 35 -12 33 -24 -4 -20
-53 -36 -158 -52 -51 -7 -103 -25 -169 -56 -95 -46 -96 -46 -148 -34 -28 7
-68 10 -87 7 -31 -5 -39 -2 -53 19 -8 14 -13 27 -10 30 9 9 149 -17 174 -32
32 -20 35 -17 19 14 -27 52 -51 65 -130 70 l-74 5 -16 63 c-32 125 -18 168 73
225 54 35 86 36 177 8z m-263 -44 c-3 -9 -8 -14 -10 -11 -3 3 -2 9 2 15 9 16
15 13 8 -4z m575 -302 c-16 -2 -40 -2 -55 0 -16 2 -3 4 27 4 30 0 43 -2 28 -4z
m-91 -9 c-3 -3 -12 -4 -19 -1 -8 3 -5 6 6 6 11 1 17 -2 13 -5z m1 -91 c35 -18
48 -16 103 15 58 32 69 25 69 -44 0 -67 -22 -79 -141 -79 -96 0 -99 1 -126 29
-16 17 -20 24 -10 17 10 -8 17 -9 17 -3 0 6 -5 14 -10 17 -6 4 -7 12 -3 18 4
7 1 7 -9 -1 -15 -12 -19 -9 -32 17 -20 37 -13 55 27 75 32 16 32 15 62 -17 16
-17 40 -38 53 -44z m275 24 c34 -73 67 -182 67 -224 0 -77 -89 -208 -196 -289
-95 -71 -159 -79 -219 -25 -16 15 -63 53 -102 85 -94 75 -129 116 -164 190
-16 33 -27 61 -26 62 1 0 27 4 58 7 l55 5 0 -46 c-1 -41 2 -47 32 -65 17 -10
32 -14 32 -9 0 6 -9 14 -20 17 -36 11 -41 37 -25 122 8 43 15 90 15 106 0 15
3 27 7 27 3 0 27 -23 52 -51 52 -58 84 -69 196 -68 126 0 165 28 165 118 0 32
6 51 22 68 12 13 22 23 24 23 1 0 13 -24 27 -53z m-605 -14 c-26 -2 -71 -2
-100 0 -29 2 -8 3 47 3 55 0 79 -1 53 -3z m-5 -86 c-5 -9 -3 -9 8 0 11 9 19 9
26 2 7 -7 14 -5 23 6 21 25 30 17 30 -25 0 -35 -4 -42 -27 -51 -15 -5 -44 -9
-66 -7 l-39 3 -2 57 -3 57 29 -15 c18 -9 26 -19 21 -27z m-89 -50 c7 -6 6 -7
-4 -4 -16 4 -60 63 -60 80 0 5 12 -8 26 -29 15 -21 32 -43 38 -47z m212 -394
c3 -62 2 -66 -11 -49 -15 20 -20 81 -9 111 11 27 16 10 20 -62z m11 5 c-3 -8
-6 -5 -6 6 -1 11 2 17 5 13 3 -3 4 -12 1 -19z m63 -80 c24 -40 50 -82 59 -92
9 -11 10 -16 4 -12 -7 4 -27 27 -43 52 -18 25 -36 42 -42 38 -6 -4 -8 -3 -5 4
9 13 -2 44 -13 37 -5 -3 -6 5 -3 17 4 19 3 20 -6 8 -6 -8 -11 -10 -11 -4 0 9
9 24 16 24 1 0 21 -33 44 -72z m-60 -47 c0 -22 -5 -41 -10 -43 -6 -2 -11 -49
-13 -110 -1 -59 -5 -104 -9 -100 -8 8 -48 120 -48 134 0 4 6 8 14 8 13 0 26
45 27 94 0 25 17 56 29 56 6 0 10 -18 10 -39z m70 -13 c24 -39 28 -74 5 -41
-17 24 -37 73 -30 73 3 0 14 -15 25 -32z m-180 -118 c0 -11 -4 -20 -10 -20 -5
0 -10 -10 -10 -22 0 -29 -10 -44 -35 -52 -17 -5 -20 -13 -17 -56 3 -34 0 -50
-8 -50 -7 0 -14 10 -17 21 -5 17 -10 11 -28 -32 -21 -51 -36 -110 -65 -269 -6
-36 -16 -70 -20 -75 -11 -13 -33 -183 -25 -195 3 -5 1 -11 -4 -14 -5 -3 -28
-60 -51 -126 -24 -66 -46 -120 -51 -120 -5 0 -6 -7 -3 -15 7 -18 4 -18 -30 -6
l-25 10 33 68 c51 104 74 181 106 352 32 169 53 259 95 396 22 71 34 95 62
119 20 17 46 48 59 69 27 41 44 48 44 17z m30 -221 c0 -84 -4 -128 -10 -124
-5 3 -10 2 -10 -4 0 -8 35 -89 58 -133 2 -5 -1 -8 -7 -8 -6 0 -17 11 -23 25
-9 19 -14 22 -21 13 -6 -9 -7 -7 -3 6 4 10 2 24 -4 31 -18 21 -24 146 -11 221
25 144 31 138 31 -27z m-721 -355 c23 -29 31 -80 65 -399 50 -458 85 -755 112
-945 25 -178 59 -494 56 -518 -2 -12 -8 -22 -14 -22 -5 0 -8 6 -5 14 3 8 1 45
-4 83 -35 246 -79 585 -89 678 -6 61 -17 157 -25 215 -8 58 -23 186 -35 285
-25 217 -27 230 -29 185 -2 -63 85 -819 128 -1110 38 -257 39 -350 5 -350 -9
0 -91 42 -183 94 -91 52 -226 127 -300 168 -110 60 -137 79 -152 108 -21 40
-62 373 -52 418 3 15 20 39 38 55 l33 27 13 -120 c7 -66 15 -123 18 -127 10
-13 323 -165 328 -159 3 2 -2 89 -11 193 -9 103 -22 303 -31 443 -8 140 -18
289 -21 331 l-6 77 -62 12 c-33 6 -105 22 -158 36 -53 13 -102 24 -109 24 -9
0 -10 -26 -5 -109 l6 -108 -39 10 -40 11 -6 65 c-3 36 -13 128 -21 205 -19
186 -18 219 5 240 17 15 41 16 276 9 l258 -8 20 -27 c14 -18 25 -64 38 -155
13 -91 17 -106 13 -53 -9 128 -24 199 -50 230 -23 26 -23 28 -4 23 11 -3 29
-16 39 -29z m302 -474 l24 -19 -23 -1 c-13 0 -32 -5 -43 -10 -18 -10 -18 -13
-4 -33 25 -36 20 -50 -17 -43 -41 8 -43 11 -24 37 9 14 13 32 9 47 -10 43 38
56 78 22z m-791 -90 c0 -28 -2 -30 -27 -24 -54 13 -60 54 -8 54 32 0 35 -2 35
-30z m717 -35 c5 -16 -36 -37 -58 -30 -15 5 -17 10 -8 26 11 21 59 24 66 4z
m-811 -3 c5 -5 28 -14 52 -21 35 -10 42 -16 42 -38 0 -26 0 -26 -62 -19 -73 9
-98 20 -98 44 0 34 41 55 66 34z m768 -56 c44 -18 86 -76 55 -76 -6 0 -24 9
-39 20 -16 11 -32 20 -37 19 -23 -4 -33 3 -33 26 0 29 8 30 54 11z m-706 -55
c17 -5 28 -15 30 -29 3 -21 0 -22 -71 -22 -87 0 -107 6 -107 29 0 41 49 48
148 22z m69 -31 c-1 -11 -7 -20 -14 -20 -7 0 -13 9 -13 20 0 11 6 20 14 20 9
0 14 -9 13 -20z m658 -114 c45 -93 42 -173 -9 -215 -12 -10 -15 -6 -20 31 -4
24 -13 90 -21 147 -8 58 -15 109 -15 114 0 21 41 -28 65 -77z m-677 38 c3 -20
-3 -22 -87 -28 -97 -8 -111 -5 -111 23 0 29 10 32 105 29 83 -3 90 -5 93 -24z
m1788 -48 c52 -51 57 -91 23 -158 -20 -39 -22 -40 -57 -34 -116 22 -119 22
-166 -22 -23 -22 -52 -42 -62 -45 -33 -9 -147 -26 -219 -32 -88 -8 -155 -43
-271 -142 -127 -109 -154 -127 -164 -117 -6 6 6 28 32 59 22 28 57 74 76 103
24 36 42 52 56 52 13 0 48 24 81 55 51 47 56 55 37 55 -12 0 -45 -11 -72 -25
-27 -14 -63 -26 -81 -27 -37 -3 -77 -35 -173 -135 -63 -67 -106 -91 -106 -60
0 17 120 174 167 218 28 26 67 46 146 74 100 35 138 55 103 55 -8 0 -18 -4
-21 -10 -3 -5 -50 -23 -104 -40 -115 -35 -156 -67 -252 -191 -34 -43 -65 -79
-70 -79 -20 0 -6 34 56 131 62 97 68 103 121 125 83 33 88 46 7 17 -47 -17
-74 -33 -88 -53 -11 -16 -40 -59 -65 -95 -34 -50 -46 -62 -51 -48 -3 10 5 33
21 58 15 22 40 60 56 84 18 27 42 50 64 58 52 21 251 123 280 144 20 14 55 18
175 23 83 3 195 14 250 24 55 11 129 20 164 21 63 1 64 0 107 -43z m160 5
c167 -29 207 -52 247 -140 22 -49 29 -160 14 -214 -6 -24 -11 -26 -35 -21 -36
9 -198 73 -295 118 l-78 35 23 31 c32 44 32 136 0 179 -28 38 -29 38 124 12z
m279 -11 l40 -18 -43 -1 -42 -1 30 -60 c16 -33 30 -63 30 -67 -1 -4 -12 12
-25 37 -31 59 -59 88 -108 110 -36 17 -38 19 -16 22 37 6 90 -3 134 -22z m75
10 c13 -9 13 -10 0 -10 -8 0 -22 5 -30 10 -13 9 -13 10 0 10 8 0 22 -5 30 -10z
m-2305 -31 c6 -17 9 -19 17 -8 8 12 9 12 6 0 -3 -9 -35 -21 -88 -33 -78 -16
-85 -17 -102 -1 -43 39 -10 61 94 62 60 1 67 -1 73 -20z m0 -69 c15 -25 -70
-70 -133 -70 -20 0 -23 4 -20 27 3 25 9 29 58 39 72 15 88 16 95 4z m690 -180
c-3 -5 -11 -10 -16 -10 -6 0 -7 5 -4 10 3 6 11 10 16 10 6 0 7 -4 4 -10z m790
-148 l110 -47 -40 -6 c-37 -6 -36 -6 9 -4 41 2 72 -7 170 -49 67 -28 126 -56
131 -63 6 -7 42 -25 80 -41 127 -52 483 -222 491 -233 4 -6 -330 -13 -1231
-24 -338 -4 -434 -2 -447 7 -11 9 -20 40 -26 88 -5 41 -8 76 -7 78 1 2 32 -13
67 -33 56 -30 74 -35 131 -35 36 0 77 4 91 9 14 6 37 6 54 2 16 -5 51 -5 78 0
37 7 60 5 97 -7 33 -11 60 -14 85 -9 20 5 147 7 282 7 263 -1 411 7 417 23 2
6 -17 21 -42 34 -25 13 -43 26 -41 28 2 3 14 -1 26 -7 12 -6 24 -9 27 -6 6 5
-110 66 -127 66 -5 0 -79 32 -164 70 -140 63 -220 91 -156 55 14 -8 20 -14 15
-15 -6 0 -19 6 -30 14 -20 13 -170 79 -274 119 l-56 22 65 6 c82 7 83 7 215
-49z m-527 41 c-15 -2 -42 -2 -60 0 -18 2 -6 4 27 4 33 0 48 -2 33 -4z m2402
-113 c11 -11 20 -24 20 -29 0 -5 3 -16 6 -25 4 -12 0 -16 -15 -16 -27 0 -78
-25 -108 -53 l-23 -20 0 30 c0 17 -3 44 -6 60 -5 26 -1 33 28 51 42 27 72 28
98 2z m-252 -30 c40 -5 82 -15 94 -21 l22 -12 -23 -18 c-13 -11 -31 -19 -40
-18 -11 0 -9 3 7 9 34 14 27 26 -25 41 -62 18 -356 19 -395 1 -16 -6 -28 -7
-28 -2 0 5 17 12 38 15 20 4 44 8 52 10 34 7 230 4 298 -5z m-120 -27 c-10 -2
-26 -2 -35 0 -10 3 -2 5 17 5 19 0 27 -2 18 -5z m-2261 -9 c-3 -3 -12 -4 -19
-1 -8 3 -5 6 6 6 11 1 17 -2 13 -5z m2030 -32 c-23 -5 -4 -253 26 -347 23 -71
24 -77 7 -57 -40 48 -63 148 -68 294 l-4 137 26 -12 c14 -7 20 -13 13 -15z
m-847 -7 c14 -8 21 -14 15 -14 -5 0 -21 6 -35 14 -14 8 -20 14 -15 14 6 0 21
-6 35 -14z m1509 -13 c51 -50 49 -158 -3 -226 -43 -56 -196 -146 -196 -115 0
5 4 9 9 9 25 0 137 88 162 129 39 61 40 130 4 167 -15 15 -32 23 -41 20 -9 -3
-22 -6 -30 -6 -8 0 -27 -20 -42 -45 -23 -39 -53 -60 -52 -37 2 31 50 99 80
114 49 25 77 22 109 -10z m-2622 -25 c12 -13 -19 -7 -53 9 -48 23 -42 37 6 15
22 -10 43 -21 47 -24z m2026 36 c-7 -2 -21 -2 -30 0 -10 3 -4 5 12 5 17 0 24
-2 18 -5z m310 0 c-7 -2 -21 -2 -30 0 -10 3 -4 5 12 5 17 0 24 -2 18 -5z
m-120 -10 c-29 -2 -77 -2 -105 0 -29 2 -6 3 52 3 58 0 81 -1 53 -3z m-2158
-21 c-3 -3 -11 0 -18 7 -9 10 -8 11 6 5 10 -3 15 -9 12 -12z m56 -64 c44 -24
79 -46 79 -50 0 -15 -37 -8 -54 11 -9 10 -34 26 -56 36 -22 10 -40 22 -40 27
0 5 -4 6 -10 3 -5 -3 -10 -1 -10 4 0 17 6 14 91 -31z m2485 17 c46 -70 -46
-205 -152 -222 l-35 -6 6 44 c14 106 15 109 35 109 11 0 26 11 35 25 8 14 22
36 30 50 20 33 59 33 81 0z m-2613 -7 c19 -7 25 -14 19 -20 -11 -11 -82 18
-82 34 0 6 8 7 18 3 9 -4 30 -12 45 -17z m224 -12 c0 -8 -6 -12 -15 -9 -11 5
-11 7 0 14 7 5 13 9 14 9 0 0 1 -6 1 -14z m88 -37 c17 -6 15 -8 -11 -8 -16 -1
-39 6 -50 14 -18 14 -17 15 11 9 17 -4 39 -11 50 -15z m-205 -4 l25 -14 -27
-1 c-39 0 -63 11 -46 21 17 11 18 11 48 -6z m825 5 c-27 -12 -35 -12 -35 0 0
6 12 10 28 9 24 0 25 -1 7 -9z m193 -7 c-10 -2 -26 -2 -35 0 -10 3 -2 5 17 5
19 0 27 -2 18 -5z m-298 -7 c0 -8 -60 -12 -72 -4 -8 4 4 8 30 8 23 0 42 -2 42
-4z m590 -156 c-8 -5 -23 -10 -32 -10 -10 0 -18 -7 -18 -15 0 -12 19 -15 109
-15 105 0 152 -12 94 -24 -97 -19 -1483 -60 -1537 -45 -41 11 -66 42 -66 81
l0 28 139 0 139 0 4 -25 c4 -17 1 -25 -9 -25 -12 0 -12 -3 1 -16 11 -10 30
-14 63 -12 46 3 48 4 50 37 4 50 13 51 13 3 l0 -42 55 0 c50 0 55 2 55 23 0
12 3 32 6 45 l6 22 472 0 c308 0 466 -4 456 -10z m513 -83 c-24 -5 -43 -14
-43 -20 0 -5 -7 -3 -16 4 -15 12 -14 14 7 20 13 4 40 7 59 7 l35 0 -42 -11z
m14 -43 c-3 -3 -12 -4 -19 -1 -8 3 -5 6 6 6 11 1 17 -2 13 -5z"/>
<path d="M2176 3617 c3 -10 9 -15 12 -12 3 3 0 11 -7 18 -10 9 -11 8 -5 -6z"/>
<path d="M2174 3380 c-25 -10 -38 -26 -26 -34 9 -5 92 29 92 39 0 8 -42 5 -66
-5z"/>
<path d="M2360 3326 c-41 -27 -59 -34 -134 -46 -32 -5 -69 -5 -88 0 -27 7 -30
7 -14 -3 11 -7 44 -34 73 -60 l54 -48 31 18 c36 21 54 52 20 34 -26 -14 -67
-14 -93 -1 -30 17 -22 30 19 30 39 0 172 65 180 88 6 18 -10 15 -48 -12z"/>
<path d="M1333 1940 c0 -25 2 -35 4 -22 2 12 2 32 0 45 -2 12 -4 2 -4 -23z"/>
<path d="M1859 1043 c-13 -16 -12 -17 4 -4 16 13 21 21 13 21 -2 0 -10 -8 -17
-17z"/>
<path d="M2797 503 c-29 -3 -37 -8 -35 -21 3 -14 17 -18 72 -20 60 -3 68 -1
62 13 -3 9 -6 21 -6 26 0 9 -20 9 -93 2z"/>
<path d="M1680 466 c0 -40 15 -49 71 -40 36 6 39 9 39 40 l0 34 -55 0 -55 0 0
-34z"/>
<path d="M2156 478 c-3 -13 -6 -26 -6 -30 0 -5 29 -8 65 -8 l65 0 0 30 c0 30
0 30 -59 30 -52 0 -59 -2 -65 -22z"/>
<path d="M2538 493 c-40 -3 -48 -8 -48 -24 0 -18 8 -19 100 -19 l100 0 0 25
c0 24 -3 25 -52 23 -29 -1 -74 -3 -100 -5z"/>
<path d="M2930 475 c0 -8 7 -15 15 -15 8 0 15 7 15 15 0 8 -7 15 -15 15 -8 0
-15 -7 -15 -15z"/>
<path d="M2112 460 c0 -14 2 -19 5 -12 2 6 2 18 0 25 -3 6 -5 1 -5 -13z"/>
<path d="M2720 470 c0 -5 5 -10 10 -10 6 0 10 5 10 10 0 6 -4 10 -10 10 -5 0
-10 -4 -10 -10z"/>
<path d="M2350 450 c-40 -6 -36 -7 33 -8 42 -1 77 1 77 6 0 9 -54 11 -110 2z"/>
<path d="M3128 4373 c7 -3 16 -2 19 1 4 3 -2 6 -13 5 -11 0 -14 -3 -6 -6z"/>
<path d="M3562 4350 c0 -14 2 -19 5 -12 2 6 2 18 0 25 -3 6 -5 1 -5 -13z"/>
<path d="M3200 3432 c6 -13 14 -21 18 -18 3 4 -2 14 -12 24 -18 16 -18 16 -6
-6z"/>
<path d="M4165 409 c-4 -6 -17 -14 -29 -19 -20 -8 -20 -9 5 -9 19 -1 28 5 32
19 6 22 2 26 -8 9z"/>
</g>
</svg>
